<svg xmlns="http://www.w3.org/2000/svg" viewBox="-7 0 315 31">
  <g transform="skewX(-10)">
    <rect x="0" y="0" width="18" height="31" rx="2" ry="2" fill="rgba(0, 0, 0, 0.70)" />
    <rect x="22" y="0" width="18" height="31" rx="2" ry="2" fill="rgba(0, 0, 0, 0.70)" />
    <rect x="44" y="0" width="18" height="31" rx="2" ry="2" fill="rgba(0, 0, 0, 0.70)" />
    <rect x="66" y="0" width="18" height="31" rx="2" ry="2" fill="rgba(0, 0, 0, 0.70)" />
    <rect x="88" y="0" width="18" height="31" rx="2" ry="2" fill="rgba(0, 0, 0, 0.70)" />
    <rect x="110" y="0" width="18" height="31" rx="2" ry="2" fill="rgba(0, 0, 0, 0.70)" />
    <rect x="132" y="0" width="18" height="31" rx="2" ry="2" fill="rgba(0, 0, 0, 0.70)" />
    <rect x="154" y="0" width="18" height="31" rx="2" ry="2" fill="rgba(0, 0, 0, 0.70)" />
    <rect x="176" y="0" width="18" height="31" rx="2" ry="2" fill="rgba(0, 0, 0, 0.70)" />
    <rect x="198" y="0" width="18" height="31" rx="2" ry="2" fill="rgba(0, 0, 0, 0.70)" />
    <rect x="220" y="0" width="18" height="31" rx="2" ry="2" fill="rgba(0, 0, 0, 0.70)" />
    <rect x="242" y="0" width="18" height="31" rx="2" ry="2" fill="rgba(0, 0, 0, 0.70)" />
    <rect x="264" y="0" width="18" height="31" rx="2" ry="2" fill="rgba(0, 0, 0, 0.70)" />
    <rect x="286" y="0" width="18" height="31" rx="2" ry="2" fill="rgba(0, 0, 0, 0.70)" />
  </g>
</svg>